<svg width="166" height="30" viewBox="0 0 166 30" fill="none" xmlns="http://www.w3.org/2000/svg">
<rect x="0.5" y="0.5" width="164.901" height="29" rx="14.5" fill="white" stroke="#DBDCDF"/>
<path d="M44.535 17.6924L47.1756 10.0689H48.5086L45.0809 19.3111H44.0018L40.5804 10.0689H41.907L44.535 17.6924Z" fill="#1E73E0"/>
<path d="M50.8445 19.3111H49.6702V12.4429H50.8445V19.3111ZM49.575 10.6212C49.575 10.4307 49.6321 10.2699 49.7464 10.1387C49.8649 10.0075 50.0384 9.94195 50.2669 9.94195C50.4954 9.94195 50.6689 10.0075 50.7874 10.1387C50.9059 10.2699 50.9651 10.4307 50.9651 10.6212C50.9651 10.8116 50.9059 10.9703 50.7874 11.0972C50.6689 11.2242 50.4954 11.2877 50.2669 11.2877C50.0384 11.2877 49.8649 11.2242 49.7464 11.0972C49.6321 10.9703 49.575 10.8116 49.575 10.6212Z" fill="#1E73E0"/>
<path d="M55.5799 19.438C54.6489 19.438 53.8914 19.1334 53.3074 18.524C52.7234 17.9104 52.4315 17.0915 52.4315 16.0674V15.8516C52.4315 15.1703 52.5605 14.563 52.8187 14.0298C53.081 13.4924 53.445 13.0735 53.9105 12.773C54.3802 12.4683 54.888 12.316 55.4339 12.316C56.3268 12.316 57.0208 12.6101 57.5159 13.1983C58.011 13.7865 58.2586 14.6286 58.2586 15.7247V16.2134H53.6058C53.6227 16.8905 53.8195 17.4385 54.1961 17.8575C54.577 18.2722 55.0594 18.4795 55.6434 18.4795C56.0581 18.4795 56.4093 18.3949 56.6971 18.2256C56.9848 18.0564 57.2366 17.8321 57.4525 17.5528L58.1697 18.1114C57.5942 18.9958 56.7309 19.438 55.5799 19.438ZM55.4339 13.2808C54.9599 13.2808 54.5622 13.4543 54.2405 13.8013C53.9189 14.1441 53.72 14.6265 53.6439 15.2486H57.0843V15.1597C57.0504 14.563 56.8896 14.1018 56.6019 13.7759C56.3141 13.4459 55.9248 13.2808 55.4339 13.2808Z" fill="#1E73E0"/>
<path d="M65.7044 17.6924L67.0247 12.4429H68.199L66.1995 19.3111H65.2474L63.5779 14.106L61.9529 19.3111H61.0008L59.0076 12.4429H60.1756L61.5276 17.5845L63.1273 12.4429H64.0731L65.7044 17.6924Z" fill="#1E73E0"/>
<path d="M73.8992 19.3111H72.7249V12.4429H73.8992V19.3111ZM72.6297 10.6212C72.6297 10.4307 72.6868 10.2699 72.8011 10.1387C72.9196 10.0075 73.0931 9.94195 73.3216 9.94195C73.5501 9.94195 73.7236 10.0075 73.8421 10.1387C73.9606 10.2699 74.0198 10.4307 74.0198 10.6212C74.0198 10.8116 73.9606 10.9703 73.8421 11.0972C73.7236 11.2242 73.5501 11.2877 73.3216 11.2877C73.0931 11.2877 72.9196 11.2242 72.8011 11.0972C72.6868 10.9703 72.6297 10.8116 72.6297 10.6212Z" fill="#1E73E0"/>
<path d="M76.8953 12.4429L76.9334 13.3062C77.4582 12.6461 78.1437 12.316 78.9901 12.316C80.4415 12.316 81.1736 13.1348 81.1863 14.7725V19.3111H80.012V14.7662C80.0078 14.2711 79.8935 13.905 79.6693 13.668C79.4492 13.431 79.1043 13.3126 78.6346 13.3126C78.2537 13.3126 77.9194 13.4141 77.6317 13.6172C77.3439 13.8204 77.1196 14.087 76.9588 14.417V19.3111H75.7845V12.4429H76.8953Z" fill="#1E73E0"/>
<path d="M88.429 17.5909L90.0286 12.4429H91.2855L88.5242 20.3712C88.0968 21.5137 87.4176 22.085 86.4866 22.085L86.2645 22.066L85.8265 21.9835V21.0313L86.1439 21.0567C86.5416 21.0567 86.8506 20.9763 87.0706 20.8155C87.2949 20.6547 87.479 20.3606 87.6229 19.9332L87.8831 19.2349L85.4329 12.4429H86.7151L88.429 17.5909Z" fill="#1E73E0"/>
<path d="M91.9266 15.8135C91.9266 15.1407 92.0578 14.5355 92.3201 13.9981C92.5867 13.4607 92.9549 13.046 93.4246 12.754C93.8986 12.462 94.4381 12.316 95.0433 12.316C95.9785 12.316 96.7339 12.6397 97.3094 13.2872C97.8891 13.9346 98.179 14.7958 98.179 15.8707V15.9532C98.179 16.6218 98.0499 17.2227 97.7918 17.7559C97.5379 18.2849 97.1719 18.6975 96.6937 18.9937C96.2197 19.2899 95.6738 19.438 95.056 19.438C94.125 19.438 93.3696 19.1143 92.7899 18.4669C92.2143 17.8194 91.9266 16.9625 91.9266 15.8961V15.8135ZM93.1072 15.9532C93.1072 16.7149 93.2829 17.3264 93.6341 17.7877C93.9896 18.2489 94.4635 18.4795 95.056 18.4795C95.6526 18.4795 96.1266 18.2468 96.4778 17.7813C96.8291 17.3116 97.0047 16.6557 97.0047 15.8135C97.0047 15.0603 96.8248 14.4509 96.4651 13.9854C96.1097 13.5157 95.6357 13.2808 95.0433 13.2808C94.4635 13.2808 93.9959 13.5115 93.6404 13.9727C93.285 14.434 93.1072 15.0941 93.1072 15.9532Z" fill="#1E73E0"/>
<path d="M103.892 18.6319C103.435 19.1693 102.764 19.438 101.88 19.438C101.148 19.438 100.589 19.2265 100.204 18.8033C99.8231 18.3759 99.6305 17.7453 99.6263 16.9117V12.4429H100.801V16.8799C100.801 17.921 101.224 18.4415 102.07 18.4415C102.967 18.4415 103.564 18.1072 103.86 17.4385V12.4429H105.034V19.3111H103.917L103.892 18.6319Z" fill="#1E73E0"/>
<path d="M110.144 13.4966C109.967 13.467 109.774 13.4522 109.567 13.4522C108.797 13.4522 108.274 13.7802 107.999 14.4361V19.3111H106.825V12.4429H107.967L107.986 13.2364C108.371 12.6228 108.917 12.316 109.624 12.316C109.852 12.316 110.026 12.3456 110.144 12.4048V13.4966Z" fill="#1E73E0"/>
<path d="M118.453 17.4893C118.453 17.1719 118.333 16.9265 118.092 16.753C117.855 16.5753 117.438 16.4229 116.841 16.296C116.249 16.169 115.777 16.0167 115.426 15.8389C115.079 15.6612 114.82 15.4496 114.651 15.2042C114.486 14.9587 114.404 14.6667 114.404 14.3282C114.404 13.7654 114.641 13.2893 115.115 12.9C115.593 12.5106 116.202 12.316 116.943 12.316C117.721 12.316 118.352 12.517 118.834 12.919C119.321 13.321 119.564 13.8352 119.564 14.4615H118.384C118.384 14.1399 118.246 13.8627 117.971 13.6299C117.7 13.3972 117.357 13.2808 116.943 13.2808C116.515 13.2808 116.181 13.3739 115.94 13.5601C115.699 13.7463 115.578 13.9896 115.578 14.2901C115.578 14.5736 115.69 14.7873 115.914 14.9312C116.139 15.0751 116.543 15.2126 117.127 15.3438C117.715 15.475 118.191 15.6316 118.555 15.8135C118.919 15.9955 119.188 16.2156 119.361 16.4737C119.539 16.7276 119.628 17.0386 119.628 17.4068C119.628 18.0204 119.382 18.5134 118.891 18.8858C118.401 19.254 117.764 19.438 116.981 19.438C116.431 19.438 115.944 19.3407 115.521 19.1461C115.098 18.9514 114.765 18.6806 114.524 18.3336C114.287 17.9823 114.169 17.6036 114.169 17.1973H115.343C115.364 17.5909 115.521 17.904 115.813 18.1368C116.109 18.3653 116.498 18.4795 116.981 18.4795C117.425 18.4795 117.781 18.3907 118.047 18.2129C118.318 18.031 118.453 17.7898 118.453 17.4893Z" fill="#1E73E0"/>
<path d="M126.959 15.9532C126.959 16.9984 126.72 17.8406 126.242 18.4795C125.764 19.1185 125.116 19.438 124.3 19.438C123.466 19.438 122.81 19.1736 122.332 18.6446V21.9517H121.158V12.4429H122.23L122.287 13.2046C122.766 12.6122 123.43 12.316 124.281 12.316C125.106 12.316 125.757 12.627 126.236 13.2491C126.718 13.8712 126.959 14.7365 126.959 15.8453V15.9532ZM125.785 15.8199C125.785 15.0455 125.62 14.434 125.29 13.9854C124.96 13.5368 124.507 13.3126 123.931 13.3126C123.221 13.3126 122.687 13.6278 122.332 14.2584V17.5401C122.683 18.1664 123.221 18.4795 123.944 18.4795C124.507 18.4795 124.953 18.2574 125.284 17.813C125.618 17.3645 125.785 16.7001 125.785 15.8199Z" fill="#1E73E0"/>
<path d="M132.698 19.3111C132.63 19.1757 132.575 18.9345 132.533 18.5875C131.987 19.1545 131.335 19.438 130.577 19.438C129.9 19.438 129.344 19.2476 128.908 18.8668C128.476 18.4817 128.261 17.995 128.261 17.4068C128.261 16.6916 128.531 16.1373 129.073 15.7437C129.619 15.3459 130.385 15.147 131.371 15.147H132.513V14.6075C132.513 14.197 132.391 13.8712 132.145 13.6299C131.9 13.3845 131.538 13.2618 131.06 13.2618C130.641 13.2618 130.29 13.3676 130.006 13.5792C129.723 13.7907 129.581 14.0468 129.581 14.3472H128.4C128.4 14.0045 128.521 13.6744 128.762 13.357C129.007 13.0354 129.338 12.7815 129.752 12.5953C130.171 12.4091 130.63 12.316 131.13 12.316C131.921 12.316 132.541 12.5149 132.99 12.9127C133.438 13.3062 133.671 13.85 133.688 14.544V17.7051C133.688 18.3357 133.768 18.8371 133.929 19.2095V19.3111H132.698ZM130.749 18.4161C131.117 18.4161 131.466 18.3209 131.796 18.1304C132.126 17.94 132.365 17.6924 132.513 17.3878V15.9786H131.593C130.154 15.9786 129.435 16.3996 129.435 17.2418C129.435 17.6099 129.558 17.8977 129.803 18.105C130.048 18.3124 130.364 18.4161 130.749 18.4161Z" fill="#1E73E0"/>
<path d="M138.284 18.4795C138.702 18.4795 139.069 18.3526 139.382 18.0987C139.695 17.8448 139.868 17.5274 139.902 17.1465H141.013C140.992 17.5401 140.856 17.9146 140.607 18.2701C140.357 18.6255 140.023 18.9091 139.604 19.1207C139.189 19.3323 138.749 19.438 138.284 19.438C137.348 19.438 136.603 19.127 136.049 18.5049C135.499 17.8786 135.224 17.0238 135.224 15.9405V15.7437C135.224 15.0751 135.347 14.4805 135.592 13.96C135.838 13.4395 136.189 13.0354 136.646 12.7476C137.107 12.4599 137.651 12.316 138.277 12.316C139.047 12.316 139.686 12.5466 140.194 13.0079C140.706 13.4691 140.979 14.0679 141.013 14.8043H139.902C139.868 14.3599 139.699 13.996 139.394 13.7125C139.094 13.4247 138.721 13.2808 138.277 13.2808C137.68 13.2808 137.217 13.4966 136.887 13.9283C136.561 14.3557 136.398 14.9756 136.398 15.7881V16.0103C136.398 16.8017 136.561 17.411 136.887 17.8384C137.213 18.2658 137.678 18.4795 138.284 18.4795Z" fill="#1E73E0"/>
<path d="M145.183 19.438C144.252 19.438 143.495 19.1334 142.911 18.524C142.327 17.9104 142.035 17.0915 142.035 16.0674V15.8516C142.035 15.1703 142.164 14.563 142.422 14.0298C142.685 13.4924 143.048 13.0735 143.514 12.773C143.984 12.4683 144.492 12.316 145.037 12.316C145.93 12.316 146.624 12.6101 147.119 13.1983C147.615 13.7865 147.862 14.6286 147.862 15.7247V16.2134H143.209C143.226 16.8905 143.423 17.4385 143.8 17.8575C144.18 18.2722 144.663 18.4795 145.247 18.4795C145.662 18.4795 146.013 18.3949 146.301 18.2256C146.588 18.0564 146.84 17.8321 147.056 17.5528L147.773 18.1114C147.198 18.9958 146.334 19.438 145.183 19.438ZM145.037 13.2808C144.563 13.2808 144.166 13.4543 143.844 13.8013C143.522 14.1441 143.324 14.6265 143.247 15.2486H146.688V15.1597C146.654 14.563 146.493 14.1018 146.205 13.7759C145.918 13.4459 145.528 13.2808 145.037 13.2808Z" fill="#1E73E0"/>
<path fill-rule="evenodd" clip-rule="evenodd" d="M23.9362 9.83044C23.6193 9.65171 23.2319 9.65171 22.915 9.83044L19.1156 11.973C18.7889 12.1573 18.5867 12.5033 18.5867 12.8785V17.1215C18.5867 17.4967 18.7889 17.8427 19.1156 18.027L22.915 20.1696C23.2319 20.3483 23.6193 20.3483 23.9362 20.1696L27.7356 18.027C28.0623 17.8427 28.2645 17.4967 28.2645 17.1215V12.8785C28.2645 12.5033 28.0623 12.1573 27.7356 11.973L23.9362 9.83044ZM26.9141 13.0509L23.4256 11.1018L19.9371 13.0509V16.9491L23.4256 18.8982L26.9141 16.9491V13.0509Z" fill="#0171EF"/>
<path d="M27.4538 7.72332H29.5328C30.2505 7.72332 30.8322 8.30509 30.8322 9.02273V11.1018H29.5328V9.54249C29.5328 9.25543 29.3001 9.02273 29.013 9.02273H27.4538V7.72332Z" fill="#0171EF"/>
<path d="M16.019 11.1018L16.019 9.02273C16.019 8.30509 16.6007 7.72332 17.3184 7.72332L19.3974 7.72332V9.02273H17.8382C17.5511 9.02273 17.3184 9.25543 17.3184 9.54249V11.1018H16.019Z" fill="#0171EF"/>
<path d="M19.3974 22.2767H17.3184C16.6007 22.2767 16.019 21.6949 16.019 20.9773L16.019 18.8982H17.3184L17.3184 20.4575C17.3184 20.7446 17.5511 20.9773 17.8382 20.9773H19.3974V22.2767Z" fill="#0171EF"/>
<path d="M30.8322 18.8982V20.9773C30.8322 21.6949 30.2505 22.2767 29.5328 22.2767H27.4538V20.9773H29.013C29.3001 20.9773 29.5328 20.7446 29.5328 20.4575V18.8982H30.8322Z" fill="#0171EF"/>
<path d="M22.7759 15H24.0753V19.1581H22.7759V15Z" fill="#0171EF"/>
<path d="M26.7551 12.3489L27.4048 13.4742L23.5649 15.6912L22.9152 14.5659L26.7551 12.3489Z" fill="#0171EF"/>
<path d="M19.2592 13.3662L19.9089 12.2408L23.936 14.5659L23.2863 15.6912L19.2592 13.3662Z" fill="#0171EF"/>
</svg>
