<svg width="118" height="30" viewBox="0 0 118 30" fill="none" xmlns="http://www.w3.org/2000/svg">
<path d="M113.919 0H4.08131C1.82727 0 0 1.82284 0 4.07143V25.9286C0 28.1772 1.82727 30 4.08131 30H113.919C116.173 30 118 28.1772 118 25.9286V4.07143C118 1.82284 116.173 0 113.919 0Z" fill="#0070C9"/>
<path d="M17.4278 7.28571C17.3555 7.28597 17.2844 7.26725 17.2216 7.23143L15.0363 5.96857L12.8424 7.23143C12.7954 7.25844 12.7435 7.27596 12.6897 7.28297C12.6359 7.28998 12.5813 7.28635 12.5289 7.27229C12.4765 7.25822 12.4274 7.23401 12.3844 7.20101C12.3414 7.16802 12.3053 7.1269 12.2782 7.08C12.2511 7.0331 12.2336 6.98134 12.2266 6.92767C12.2195 6.874 12.2232 6.81948 12.2373 6.76721C12.2514 6.71494 12.2756 6.66596 12.3087 6.62305C12.3418 6.58015 12.383 6.54416 12.43 6.51714L14.833 5.14286C14.8956 5.10646 14.9667 5.08729 15.0392 5.08729C15.1117 5.08729 15.1828 5.10646 15.2454 5.14286L17.6369 6.52286C17.716 6.56795 17.7778 6.63788 17.8128 6.72173C17.8479 6.80557 17.8541 6.89863 17.8306 6.98638C17.807 7.07413 17.755 7.15164 17.6827 7.20682C17.6104 7.262 17.5218 7.29175 17.4307 7.29143" fill="white"/>
<path d="M15.0364 18.14C14.981 18.14 14.9262 18.1289 14.8752 18.1074C14.8242 18.0858 14.7781 18.0542 14.7396 18.0145C14.7011 17.9748 14.671 17.9277 14.6512 17.8761C14.6313 17.8245 14.622 17.7695 14.624 17.7143V14.9657C14.624 14.8566 14.6674 14.7519 14.7448 14.6748C14.8221 14.5976 14.927 14.5543 15.0364 14.5543C15.1458 14.5543 15.2507 14.5976 15.328 14.6748C15.4054 14.7519 15.4488 14.8566 15.4488 14.9657V17.7143C15.4488 17.8234 15.4054 17.928 15.328 18.0052C15.2507 18.0824 15.1458 18.1257 15.0364 18.1257" fill="white"/>
<path d="M6.81642 13.3971C6.70704 13.3971 6.60213 13.3538 6.52479 13.2766C6.44744 13.1995 6.40399 13.0948 6.40399 12.9857V10.2257C6.40399 10.1717 6.41466 10.1182 6.43539 10.0683C6.45611 10.0184 6.48649 9.973 6.52479 9.93479C6.56309 9.89659 6.60855 9.86628 6.65859 9.8456C6.70863 9.82493 6.76226 9.81429 6.81642 9.81429C6.87058 9.81429 6.92421 9.82493 6.97425 9.8456C7.02429 9.86628 7.06975 9.89659 7.10805 9.93479C7.14635 9.973 7.17673 10.0184 7.19745 10.0683C7.21818 10.1182 7.22885 10.1717 7.22885 10.2257V12.9857C7.22885 13.0948 7.18539 13.1995 7.10805 13.2766C7.0307 13.3538 6.9258 13.3971 6.81642 13.3971" fill="white"/>
<path d="M23.2477 13.3971C23.1383 13.3971 23.0334 13.3538 22.9561 13.2766C22.8787 13.1995 22.8353 13.0948 22.8353 12.9857V10.2257C22.8353 10.1717 22.8459 10.1182 22.8667 10.0683C22.8874 10.0184 22.9178 9.973 22.9561 9.93479C22.9944 9.89659 23.0398 9.86628 23.0899 9.8456C23.1399 9.82493 23.1935 9.81429 23.2477 9.81429C23.3019 9.81429 23.3555 9.82493 23.4055 9.8456C23.4556 9.86628 23.501 9.89659 23.5393 9.93479C23.5776 9.973 23.608 10.0184 23.6287 10.0683C23.6495 10.1182 23.6601 10.1717 23.6601 10.2257V12.9857C23.6601 13.0948 23.6167 13.1995 23.5393 13.2766C23.462 13.3538 23.3571 13.3971 23.2477 13.3971" fill="white"/>
<path d="M23.2506 20.1171C23.1427 20.1172 23.039 20.075 22.9619 19.9997C22.8848 19.9244 22.8404 19.8219 22.8381 19.7143V16.9429C22.8381 16.8337 22.8816 16.7291 22.9589 16.6519C23.0363 16.5748 23.1412 16.5314 23.2506 16.5314C23.3599 16.5314 23.4648 16.5748 23.5422 16.6519C23.6195 16.7291 23.663 16.8337 23.663 16.9429V19.7143C23.663 19.8234 23.6195 19.9281 23.5422 20.0052C23.4648 20.0824 23.3599 20.1257 23.2506 20.1257V20.1171Z" fill="white"/>
<path d="M6.81642 20.1171C6.70851 20.1172 6.60489 20.075 6.52779 19.9997C6.45068 19.9244 6.40624 19.8219 6.40399 19.7143V16.9429C6.40399 16.8888 6.41466 16.8353 6.43539 16.7854C6.45611 16.7355 6.48649 16.6901 6.52479 16.6519C6.56309 16.6137 6.60855 16.5834 6.65859 16.5627C6.70863 16.5421 6.76226 16.5314 6.81642 16.5314C6.87058 16.5314 6.92421 16.5421 6.97425 16.5627C7.02429 16.5834 7.06975 16.6137 7.10805 16.6519C7.14635 16.6901 7.17673 16.7355 7.19745 16.7854C7.21818 16.8353 7.22885 16.8888 7.22885 16.9429V19.7143C7.22885 19.8234 7.18539 19.9281 7.10805 20.0052C7.0307 20.0824 6.9258 20.1257 6.81642 20.1257" fill="white"/>
<path d="M15.0364 8.91429C14.927 8.91429 14.8221 8.87094 14.7448 8.79378C14.6674 8.71662 14.624 8.61197 14.624 8.50286V5.49429C14.624 5.38517 14.6674 5.28052 14.7448 5.20336C14.8221 5.1262 14.927 5.08286 15.0364 5.08286C15.1458 5.08286 15.2507 5.1262 15.328 5.20336C15.4054 5.28052 15.4488 5.38517 15.4488 5.49429V8.50286C15.4488 8.61197 15.4054 8.71662 15.328 8.79378C15.2507 8.87094 15.1458 8.91429 15.0364 8.91429" fill="white"/>
<path d="M15.0364 24.8571C14.927 24.8571 14.8221 24.8138 14.7448 24.7366C14.6674 24.6595 14.624 24.5548 14.624 24.4457V21.6886C14.624 21.5795 14.6674 21.4748 14.7448 21.3976C14.8221 21.3205 14.927 21.2771 15.0364 21.2771C15.1458 21.2771 15.2507 21.3205 15.328 21.3976C15.4054 21.4748 15.4488 21.5795 15.4488 21.6886V24.4486C15.4481 24.5572 15.4043 24.6611 15.327 24.7376C15.2497 24.8142 15.1453 24.8571 15.0364 24.8571" fill="white"/>
<path d="M15.0364 24.8571C14.9641 24.8573 14.893 24.8385 14.8302 24.8029L12.4243 23.4286C12.3294 23.374 12.2601 23.2841 12.2316 23.1785C12.2031 23.0729 12.2179 22.9604 12.2726 22.8657C12.3272 22.771 12.4174 22.7018 12.5232 22.6734C12.629 22.645 12.7418 22.6597 12.8368 22.7143L15.0393 23.9857L17.2102 22.7314C17.3008 22.6982 17.4002 22.6977 17.4912 22.73C17.5821 22.7623 17.6588 22.8255 17.7079 22.9084C17.7569 22.9914 17.7753 23.0888 17.7597 23.1839C17.7441 23.2789 17.6956 23.3655 17.6226 23.4286L15.2455 24.8029C15.1827 24.8388 15.1116 24.8575 15.0393 24.8571" fill="white"/>
<path d="M15.0363 15.3771C14.964 15.3773 14.8929 15.3586 14.8301 15.3229L12.43 13.94C12.3351 13.8854 12.2657 13.7955 12.2373 13.6899C12.2088 13.5844 12.2235 13.4719 12.2782 13.3771C12.3329 13.2824 12.4231 13.2133 12.5289 13.1849C12.6347 13.1565 12.7475 13.1712 12.8425 13.2257L15.0363 14.4886L17.2216 13.2257C17.3158 13.1775 17.4249 13.1672 17.5264 13.197C17.6279 13.2268 17.7141 13.2944 17.767 13.3857C17.82 13.4771 17.8357 13.5853 17.811 13.688C17.7862 13.7906 17.7229 13.8798 17.6341 13.9371L15.2425 15.32C15.1798 15.3559 15.1087 15.3747 15.0363 15.3743" fill="white"/>
<path d="M20.8533 12.02C20.7622 12.0203 20.6736 11.9906 20.6013 11.9354C20.529 11.8802 20.477 11.8027 20.4534 11.715C20.4299 11.6272 20.4361 11.5341 20.4711 11.4503C20.5062 11.3665 20.568 11.2965 20.6471 11.2514L23.0414 9.87143C23.1327 9.8363 23.2334 9.83464 23.3258 9.86676C23.4181 9.89888 23.496 9.96268 23.5455 10.0468C23.5951 10.1309 23.6131 10.2298 23.5963 10.3259C23.5795 10.422 23.529 10.509 23.4539 10.5714L21.0595 11.9514C20.9967 11.9872 20.9256 12.006 20.8533 12.0057" fill="white"/>
<path d="M23.2476 10.6371C23.1753 10.6375 23.1042 10.6188 23.0414 10.5829L20.6442 9.2C20.5492 9.14544 20.4799 9.05549 20.4514 8.94993C20.423 8.84438 20.4377 8.73186 20.4924 8.63714C20.5471 8.54242 20.6373 8.47325 20.7431 8.44486C20.8489 8.41646 20.9617 8.43115 21.0566 8.48571L23.4539 9.86857C23.5329 9.91367 23.5948 9.98359 23.6298 10.0674C23.6648 10.1513 23.671 10.2443 23.6475 10.3321C23.624 10.4198 23.572 10.4974 23.4996 10.5525C23.4273 10.6077 23.3387 10.6375 23.2476 10.6371" fill="white"/>
<path d="M9.21078 12.02C9.13846 12.0203 9.06735 12.0015 9.00457 11.9657L6.6102 10.5714C6.51525 10.5169 6.44591 10.4269 6.41745 10.3214C6.38898 10.2158 6.40371 10.1033 6.4584 10.0086C6.51309 9.91385 6.60326 9.84468 6.70908 9.81628C6.81489 9.78789 6.92768 9.80258 7.02263 9.85714L9.41986 11.2371C9.4989 11.2822 9.56077 11.3522 9.5958 11.436C9.63083 11.5199 9.63706 11.6129 9.61351 11.7007C9.58997 11.7884 9.53797 11.8659 9.46564 11.9211C9.39331 11.9763 9.3047 12.006 9.21365 12.0057" fill="white"/>
<path d="M6.81642 10.6371C6.72536 10.6375 6.63675 10.6077 6.56442 10.5525C6.49209 10.4974 6.44009 10.4198 6.41655 10.3321C6.39301 10.2443 6.39924 10.1513 6.43427 10.0674C6.4693 9.98359 6.53116 9.91367 6.6102 9.86857L9.00457 8.49143C9.09952 8.43687 9.21231 8.42217 9.31812 8.45057C9.42393 8.47897 9.5141 8.54814 9.56879 8.64286C9.62348 8.73758 9.63822 8.85009 9.60975 8.95565C9.58128 9.0612 9.51195 9.15116 9.417 9.20571L7.02263 10.5714C6.9598 10.6071 6.88872 10.6258 6.81642 10.6257" fill="white"/>
<path d="M20.8504 21.4971C20.7594 21.4975 20.6707 21.4677 20.5984 21.4125C20.5261 21.3574 20.4741 21.2798 20.4505 21.1921C20.427 21.1043 20.4332 21.0113 20.4683 20.9274C20.5033 20.8436 20.5652 20.7737 20.6442 20.7286L23.0443 19.3486C23.0913 19.3216 23.1432 19.304 23.197 19.297C23.2508 19.29 23.3055 19.2937 23.3578 19.3077C23.4102 19.3218 23.4593 19.346 23.5024 19.379C23.5454 19.412 23.5814 19.4531 23.6085 19.5C23.6356 19.5469 23.6532 19.5987 23.6602 19.6523C23.6672 19.706 23.6636 19.7605 23.6495 19.8128C23.6354 19.8651 23.6111 19.914 23.578 19.9569C23.545 19.9999 23.5037 20.0358 23.4567 20.0629L21.0566 21.4429C20.9938 21.4787 20.9227 21.4974 20.8504 21.4971Z" fill="white"/>
<path d="M23.2476 20.1171C23.1753 20.1175 23.1042 20.0988 23.0414 20.0629L20.6442 18.6829C20.5492 18.6283 20.4799 18.5383 20.4514 18.4328C20.423 18.3272 20.4377 18.2147 20.4924 18.12C20.5471 18.0253 20.6373 17.9561 20.7431 17.9277C20.8489 17.8993 20.9617 17.914 21.0566 17.9686L23.4539 19.3486C23.5329 19.3937 23.5948 19.4636 23.6298 19.5474C23.6648 19.6313 23.671 19.7243 23.6475 19.8121C23.624 19.8998 23.572 19.9774 23.4996 20.0325C23.4273 20.0877 23.3387 20.1175 23.2476 20.1171" fill="white"/>
<path d="M9.21084 21.5C9.13852 21.5003 9.0674 21.4815 9.00463 21.4457L6.60739 20.0629C6.51244 20.0083 6.44311 19.9183 6.41464 19.8128C6.38617 19.7072 6.4009 19.5947 6.4556 19.5C6.51029 19.4053 6.60046 19.3361 6.70627 19.3077C6.81208 19.2793 6.92487 19.294 7.01982 19.3486L9.41705 20.7314C9.4961 20.7765 9.55796 20.8465 9.59299 20.9303C9.62802 21.0141 9.63425 21.1072 9.61071 21.195C9.58716 21.2827 9.53517 21.3602 9.46284 21.4154C9.3905 21.4706 9.3019 21.5003 9.21084 21.5Z" fill="white"/>
<path d="M6.81642 20.1171C6.72536 20.1175 6.63675 20.0877 6.56442 20.0325C6.49209 19.9774 6.44009 19.8998 6.41655 19.8121C6.39301 19.7243 6.39924 19.6313 6.43427 19.5474C6.4693 19.4636 6.53116 19.3937 6.6102 19.3486L9.00171 17.9657C9.09666 17.9112 9.20944 17.8965 9.31526 17.9249C9.42107 17.9533 9.51124 18.0224 9.56593 18.1171C9.62062 18.2119 9.63535 18.3244 9.60689 18.4299C9.57842 18.5355 9.50908 18.6254 9.41413 18.68L7.02263 20.06C6.95985 20.0958 6.88874 20.1145 6.81642 20.1143" fill="white"/>
<path opacity="0.2" d="M6.81651 10.46C6.76482 10.46 6.71459 10.443 6.67358 10.4116C6.63258 10.3802 6.60311 10.3362 6.58973 10.2864C6.57635 10.2366 6.57982 10.1837 6.59959 10.1361C6.61936 10.0885 6.65433 10.0487 6.69908 10.0229L14.919 5.28857C14.9728 5.25877 15.0363 5.25127 15.0956 5.26767C15.155 5.28408 15.2055 5.32309 15.2363 5.37629C15.2671 5.42949 15.2757 5.49263 15.2603 5.55211C15.2449 5.61159 15.2066 5.66265 15.1538 5.69429L6.93394 10.4286C6.89824 10.4491 6.85774 10.46 6.81651 10.46" fill="white"/>
<path opacity="0.2" d="M6.81651 19.94C6.76482 19.94 6.71459 19.923 6.67358 19.8916C6.63258 19.8602 6.60311 19.8162 6.58973 19.7664C6.57635 19.7166 6.57982 19.6637 6.59959 19.6161C6.61936 19.5685 6.65433 19.5287 6.69908 19.5029L23.1303 10.0229C23.1842 9.99306 23.2476 9.98555 23.3069 10.002C23.3663 10.0184 23.4168 10.0574 23.4476 10.1106C23.4784 10.1638 23.487 10.2269 23.4716 10.2864C23.4562 10.3459 23.4179 10.3969 23.3652 10.4286L6.93394 19.9086C6.89824 19.9291 6.85774 19.94 6.81651 19.94" fill="white"/>
<path opacity="0.2" d="M23.2477 10.46C23.2064 10.46 23.1659 10.4491 23.1302 10.4286L14.9189 5.69714C14.8661 5.66551 14.8279 5.61445 14.8125 5.55497C14.7971 5.49549 14.8057 5.43235 14.8365 5.37915C14.8673 5.32594 14.9178 5.28694 14.9771 5.27053C15.0365 5.25412 15.0999 5.26163 15.1538 5.29143L23.3651 10.0229C23.4098 10.0487 23.4448 10.0885 23.4646 10.1361C23.4843 10.1837 23.4878 10.2366 23.4744 10.2864C23.4611 10.3362 23.4316 10.3802 23.3906 10.4116C23.3496 10.443 23.2993 10.46 23.2477 10.46" fill="white"/>
<path opacity="0.2" d="M23.2477 19.94C23.2065 19.9401 23.1659 19.9293 23.1303 19.9086L6.69906 10.4286C6.64627 10.3969 6.60805 10.3459 6.59263 10.2864C6.57721 10.2269 6.58582 10.1638 6.61662 10.1106C6.64742 10.0574 6.69793 10.0184 6.75728 10.002C6.81663 9.98555 6.88006 9.99306 6.93392 10.0229L23.368 19.5029C23.4128 19.5286 23.4477 19.5685 23.4675 19.6161C23.4873 19.6637 23.4907 19.7165 23.4774 19.7664C23.464 19.8162 23.4345 19.8602 23.3935 19.8916C23.3525 19.923 23.3023 19.94 23.2506 19.94" fill="white"/>
<path opacity="0.2" d="M15.0364 24.6857C14.9952 24.6857 14.9547 24.6749 14.919 24.6543L6.69906 19.9086C6.64627 19.8769 6.60805 19.8259 6.59263 19.7664C6.57721 19.7069 6.58582 19.6438 6.61662 19.5906C6.64742 19.5374 6.69793 19.4984 6.75728 19.482C6.81663 19.4655 6.88006 19.4731 6.93392 19.5029L15.1538 24.2457C15.1986 24.2715 15.2335 24.3113 15.2533 24.359C15.2731 24.4066 15.2765 24.4594 15.2632 24.5092C15.2498 24.559 15.2203 24.603 15.1793 24.6344C15.1383 24.6658 15.0881 24.6828 15.0364 24.6829" fill="white"/>
<path opacity="0.2" d="M15.0392 24.6857C14.9875 24.6857 14.9373 24.6687 14.8963 24.6373C14.8553 24.6059 14.8258 24.5619 14.8124 24.5121C14.7991 24.4623 14.8025 24.4094 14.8223 24.3618C14.8421 24.3142 14.877 24.2744 14.9218 24.2486L23.1302 19.5029C23.1841 19.4731 23.2475 19.4655 23.3069 19.482C23.3662 19.4984 23.4167 19.5374 23.4475 19.5906C23.4783 19.6438 23.487 19.7069 23.4715 19.7664C23.4561 19.8259 23.4179 19.8769 23.3651 19.9086L15.1567 24.6543C15.121 24.6749 15.0805 24.6857 15.0392 24.6857" fill="white"/>
<path opacity="0.2" d="M6.81647 19.94C6.75664 19.9386 6.69961 19.9144 6.65702 19.8725C6.61444 19.8305 6.58951 19.7739 6.58734 19.7143V10.2257C6.58734 10.1636 6.61209 10.104 6.65613 10.06C6.70017 10.0161 6.75991 9.99143 6.8222 9.99143C6.88448 9.99143 6.94422 10.0161 6.98826 10.06C7.03231 10.104 7.05705 10.1636 7.05705 10.2257V19.7143C7.05705 19.7764 7.03231 19.836 6.98826 19.88C6.94422 19.9239 6.88448 19.9486 6.8222 19.9486" fill="white"/>
<path opacity="0.2" d="M23.2505 19.94C23.1883 19.94 23.1285 19.9153 23.0845 19.8714C23.0404 19.8274 23.0157 19.7679 23.0157 19.7057V10.2257C23.0157 10.1636 23.0404 10.104 23.0845 10.06C23.1285 10.0161 23.1883 9.99143 23.2505 9.99143C23.3128 9.99143 23.3726 10.0161 23.4166 10.06C23.4606 10.104 23.4854 10.1636 23.4854 10.2257V19.7143C23.4854 19.7764 23.4606 19.836 23.4166 19.88C23.3726 19.9239 23.3128 19.9486 23.2505 19.9486" fill="white"/>
<path opacity="0.2" d="M15.0364 24.6571C14.9741 24.6571 14.9143 24.6325 14.8703 24.5885C14.8263 24.5446 14.8015 24.485 14.8015 24.4229V5.49429C14.8015 5.43215 14.8263 5.37256 14.8703 5.32862C14.9143 5.28468 14.9741 5.26 15.0364 5.26C15.0987 5.26 15.1584 5.28468 15.2024 5.32862C15.2465 5.37256 15.2712 5.43215 15.2712 5.49429V24.4229C15.2712 24.485 15.2465 24.5446 15.2024 24.5885C15.1584 24.6325 15.0987 24.6571 15.0364 24.6571" fill="white"/>
<path d="M33.0142 21.0943L28.7639 9.58857H30.2733L33.6615 19.2371H33.7961L37.1843 9.58857H38.6937L34.4377 21.0943H33.0142Z" fill="white"/>
<path d="M40.6212 9.79714C40.6212 9.60784 40.6775 9.42278 40.7829 9.26538C40.8883 9.10798 41.0382 8.9853 41.2135 8.91286C41.3888 8.84041 41.5817 8.82146 41.7679 8.85839C41.954 8.89532 42.1249 8.98648 42.2591 9.12034C42.3933 9.2542 42.4847 9.42475 42.5217 9.61041C42.5587 9.79608 42.5397 9.98853 42.4671 10.1634C42.3945 10.3383 42.2715 10.4878 42.1137 10.593C41.9559 10.6982 41.7704 10.7543 41.5807 10.7543C41.3264 10.7535 41.0828 10.6524 40.9031 10.4731C40.7233 10.2938 40.622 10.0508 40.6212 9.79714V9.79714ZM40.8933 12.5H42.2681V21.0943H40.8933V12.5Z" fill="white"/>
<path d="M52.3009 18.8571C51.8856 20.3314 50.5596 21.2343 48.6721 21.2343C46.2835 21.2343 44.7885 19.52 44.7885 16.7943C44.7885 14.0686 46.3064 12.3371 48.6721 12.3371C51.0379 12.3371 52.4126 14 52.4126 16.6686V17.1943H46.2176V17.2571C46.2892 18.9571 47.2401 20.0314 48.7036 20.0314C49.8149 20.0314 50.5653 19.6257 50.9262 18.8657L52.3009 18.8571ZM46.2176 16.0857H50.9663C50.9348 14.5629 50.024 13.5571 48.655 13.5571C47.2859 13.5571 46.3207 14.5714 46.2176 16.0857Z" fill="white"/>
<path d="M62.9925 21.0943H61.5948L59.6673 14.4429H59.5384L57.6195 21.0943H56.2275L53.816 12.5H55.2079L56.9035 19.3743H57.0323L58.9599 12.5H60.2773L62.2049 19.3743H62.3338L64.0293 12.5H65.4126L62.9925 21.0943Z" fill="white"/>
<path d="M71.9514 9.79714C71.9514 9.60784 72.0077 9.42278 72.1131 9.26538C72.2185 9.10798 72.3684 8.9853 72.5437 8.91286C72.719 8.84041 72.9119 8.82146 73.0981 8.85839C73.2842 8.89532 73.4551 8.98648 73.5893 9.12034C73.7235 9.2542 73.8149 9.42475 73.8519 9.61041C73.8889 9.79608 73.8699 9.98853 73.7973 10.1634C73.7247 10.3383 73.6017 10.4878 73.4439 10.593C73.2861 10.6982 73.1006 10.7543 72.9109 10.7543C72.6566 10.7535 72.413 10.6524 72.2333 10.4731C72.0535 10.2938 71.9522 10.0508 71.9514 9.79714V9.79714ZM72.2235 12.5H73.6068V21.0943H72.2321L72.2235 12.5Z" fill="white"/>
<path d="M76.2189 12.5H77.5306V13.8543H77.6595C78.092 12.9057 78.9311 12.3457 80.2372 12.3457C82.1704 12.3457 83.2502 13.4886 83.2502 15.5286V21.0943H81.8754V15.8629C81.8754 14.3171 81.2195 13.5771 79.8448 13.5771C78.47 13.5771 77.5822 14.4943 77.5822 16V21.0857H76.2074L76.2189 12.5Z" fill="white"/>
<path d="M97.2297 17.8H92.6472L91.5016 21.0943H89.9922L94.2282 9.58857H95.6602L99.899 21.0943H98.3897L97.2297 17.8ZM93.0653 16.5714H96.8058L94.9986 11.4286H94.8697L93.0653 16.5714Z" fill="white"/>
<path d="M103.359 21.0943H101.927V9.58857H106.332C108.554 9.58857 110.009 10.9429 110.009 13.0171C110.009 14.62 109.15 15.8743 107.692 16.3171L110.362 21.0943H108.675L106.206 16.54H103.367L103.359 21.0943ZM103.359 15.2657H106.197C107.675 15.2657 108.514 14.4771 108.514 13.0657C108.514 11.6543 107.621 10.8657 106.131 10.8657H103.359V15.2657Z" fill="white"/>
</svg>
