<svg width="22" height="22" viewBox="0 0 22 22" fill="none" xmlns="http://www.w3.org/2000/svg">
<path fill-rule="evenodd" clip-rule="evenodd" d="M4.04099 11.5886L7.29227 17.1882C7.37409 17.3315 7.49243 17.4504 7.63522 17.533C7.77801 17.6156 7.94015 17.6588 8.1051 17.6583L14.5813 17.6766C14.9877 17.6766 15.4659 17.5594 15.5891 17.2763C15.7727 17.0277 15.6359 16.5536 15.432 16.2027L12.1807 10.6037C12.0992 10.4599 11.981 10.3403 11.8383 10.257C11.6955 10.1737 11.5332 10.1297 11.3679 10.1296L4.89174 10.1133C4.48533 10.1133 4.00644 10.2305 3.88316 10.5136C3.6996 10.7615 3.8371 11.237 4.04031 11.5865L4.04099 11.5886ZM6.13333 18.0383L2.85969 12.3729C1.633 10.2522 2.53049 8.69764 4.97912 8.69764L11.521 8.70374C12.2965 8.80602 12.8682 9.13589 13.3444 9.75702L16.6208 15.419C17.8454 17.5398 16.9479 19.0943 14.4993 19.0943L7.95743 19.0882C7.18119 18.9866 6.6095 18.6561 6.13333 18.0383Z" fill="#4AB7C3"/>
<path fill-rule="evenodd" clip-rule="evenodd" d="M11.3516 14.7356L16.276 14.7491C16.6824 14.7491 17.1613 14.6319 17.2845 14.3488C17.4681 14.1009 17.3306 13.6261 17.1267 13.2759L13.8734 7.67485C13.7913 7.5319 13.6728 7.41316 13.5301 7.33062C13.3874 7.24808 13.2254 7.20467 13.0606 7.20477L6.58509 7.18784C6.17868 7.18784 5.69979 7.30502 5.57652 7.58815C5.39295 7.83674 5.53046 8.31156 5.73434 8.66175L8.98563 14.2607C9.06714 14.4045 9.1853 14.5242 9.32807 14.6075C9.47085 14.6907 9.63315 14.7347 9.79845 14.7349L11.3503 14.7389L11.3516 14.7356ZM7.82194 15.1108L4.54762 9.44545C3.32297 7.32466 4.22046 5.77014 6.66908 5.77014L13.2103 5.77692C13.9865 5.87852 14.5589 6.20839 15.0351 6.82952L18.3107 12.4915C19.5354 14.6123 18.6379 16.1668 16.1893 16.1668L9.6474 16.1607C8.87183 16.0591 8.29947 15.7286 7.82329 15.1074L7.82194 15.1108Z" fill="#4AB7C3"/>
<path fill-rule="evenodd" clip-rule="evenodd" d="M7.42172 5.73423L10.673 11.3332C10.7545 11.477 10.8727 11.5966 11.0155 11.6799C11.1582 11.7632 11.3205 11.8072 11.4858 11.8074L17.9613 11.8256C18.3677 11.8256 18.8466 11.7085 18.9699 11.4253C19.1534 11.1767 19.0159 10.7019 18.8121 10.3517L15.5608 4.75207C15.4786 4.60912 15.3602 4.49038 15.2175 4.40784C15.0748 4.3253 14.9128 4.28189 14.7479 4.28199L8.27179 4.2637C7.86538 4.2637 7.3865 4.38088 7.26322 4.66401C7.07966 4.9126 7.21716 5.38742 7.42104 5.73761L7.42172 5.73423ZM9.51406 12.1799L6.23771 6.51792C5.01306 4.39781 5.90784 2.84329 8.35917 2.84329L14.901 2.84939C15.6766 2.95099 16.249 3.28154 16.7251 3.90267L20.0008 9.56465C21.2255 11.6848 20.328 13.2393 17.8793 13.2393L11.3382 13.2332C10.5619 13.1316 9.98956 12.801 9.51406 12.1799Z" fill="#4AB7C3"/>
</svg>
