<svg width="44" height="22" viewBox="0 0 44 22" fill="none" xmlns="http://www.w3.org/2000/svg">
<path fill-rule="evenodd" clip-rule="evenodd" d="M6.1346 7.27877C6.1359 7.38193 6.13093 7.48507 6.1197 7.58763C6.11315 7.65712 6.09743 7.72544 6.07297 7.79082C6.05807 7.83543 6.03111 7.87505 5.99507 7.90528C5.96675 7.92953 5.93076 7.94297 5.89348 7.94321H3.88661V14.4115C3.88689 14.4526 3.87247 14.4925 3.84598 14.5239C3.80853 14.5619 3.76185 14.5894 3.71051 14.6039C3.62806 14.6272 3.54377 14.6436 3.45856 14.6526C3.19659 14.6779 2.93281 14.6779 2.67084 14.6526C2.58563 14.6436 2.50134 14.6272 2.41889 14.6039C2.36769 14.5891 2.32107 14.5616 2.28342 14.5239C2.25743 14.4923 2.24329 14.4525 2.24346 14.4115V7.94321H0.241338C0.202701 7.9437 0.165185 7.93023 0.135678 7.90528C0.102287 7.87357 0.0769732 7.83432 0.061852 7.79082C0.0383485 7.72516 0.0226621 7.65696 0.0151175 7.58763C0.00389273 7.48507 -0.00108348 7.38193 0.000216662 7.27877C-0.00113528 7.17336 0.00384068 7.06796 0.0151175 6.96315C0.0226473 6.89315 0.038332 6.82428 0.061852 6.75792C0.0769254 6.71499 0.10227 6.67639 0.135678 6.64549C0.166071 6.62261 0.203307 6.61067 0.241338 6.61162H5.89348C5.93012 6.61162 5.96576 6.62351 5.99507 6.64549C6.03234 6.67444 6.06055 6.71345 6.07635 6.75792C6.10099 6.82465 6.11671 6.89434 6.12309 6.96518C6.13436 7.06999 6.13934 7.17539 6.13799 7.2808L6.1346 7.27877ZM12.2839 14.4271C12.2841 14.4664 12.2705 14.5046 12.2453 14.5348C12.2127 14.5721 12.1702 14.5993 12.1227 14.6133C12.0441 14.637 11.9633 14.6524 11.8816 14.6594C11.7571 14.6708 11.632 14.6757 11.507 14.6743C11.3791 14.6758 11.2511 14.6709 11.1237 14.6594C11.0429 14.6527 10.963 14.6377 10.8852 14.6147C10.8378 14.6007 10.7953 14.5734 10.7627 14.5361C10.7375 14.5059 10.7238 14.4678 10.724 14.4284V11.2722C10.7301 11.0595 10.7103 10.8468 10.6651 10.6389C10.6326 10.4987 10.5752 10.3654 10.4958 10.2454C10.4225 10.1375 10.3236 10.0495 10.2079 9.98936C10.0797 9.928 9.93891 9.89761 9.79681 9.90063C9.57716 9.90608 9.36509 9.98207 9.19197 10.1174C8.95393 10.2977 8.74176 10.5099 8.5614 10.7479V14.4271C8.56164 14.4664 8.54797 14.5046 8.52279 14.5348C8.48917 14.5728 8.44513 14.6001 8.39614 14.6133C8.31885 14.6366 8.23943 14.652 8.15908 14.6594C7.90683 14.6793 7.65341 14.6793 7.40117 14.6594C7.3208 14.652 7.24138 14.6366 7.16411 14.6133C7.11493 14.6001 7.07069 14.5728 7.03678 14.5348C7.0121 14.5043 6.9987 14.4663 6.99885 14.4271V6.26687C6.99854 6.2262 7.01189 6.18661 7.03678 6.15444C7.07025 6.11506 7.11451 6.08634 7.16411 6.07181C7.24085 6.04521 7.32039 6.02748 7.40117 6.01898C7.65317 5.99367 7.90707 5.99367 8.15908 6.01898C8.23984 6.02756 8.31937 6.04529 8.39614 6.07181C8.44556 6.08631 8.48961 6.11505 8.52279 6.15444C8.54778 6.1866 8.56136 6.22615 8.5614 6.26687V9.32763C8.79944 9.08496 9.07704 8.88455 9.3823 8.73499C9.65524 8.6067 9.95308 8.5401 10.2547 8.53992C10.5821 8.52968 10.9076 8.59335 11.207 8.72618C11.4543 8.84152 11.6695 9.01598 11.8335 9.23416C11.9971 9.46001 12.1139 9.71633 12.1769 9.98801C12.2528 10.3313 12.2883 10.6823 12.2825 11.0338V14.4271H12.2839ZM17.3725 9.4062C17.3725 9.55385 17.3684 9.67712 17.3596 9.77195C17.3541 9.8469 17.3421 9.92123 17.3237 9.9941C17.3123 10.0372 17.2888 10.0762 17.256 10.1065C17.2258 10.1278 17.1893 10.1383 17.1524 10.1363C17.114 10.1353 17.0761 10.1282 17.0399 10.1153C17 10.1004 16.9533 10.0855 16.9004 10.0686C16.8476 10.0517 16.7927 10.0368 16.7311 10.0219C16.6644 10.0072 16.5962 10.0001 16.5279 10.0009C16.4383 10.0011 16.3497 10.019 16.2671 10.0537C16.1691 10.0949 16.0778 10.1506 15.9962 10.219C15.8888 10.3073 15.7907 10.4065 15.7036 10.515C15.5868 10.662 15.478 10.8153 15.3778 10.9742V14.4284C15.378 14.4676 15.3646 14.5057 15.3399 14.5361C15.3062 14.574 15.2622 14.6013 15.2132 14.6147C15.136 14.638 15.0566 14.6534 14.9762 14.6608C14.7239 14.6806 14.4705 14.6806 14.2183 14.6608C14.1379 14.6534 14.0585 14.638 13.9812 14.6147C13.9321 14.6017 13.8881 14.5743 13.8546 14.5361C13.8294 14.5059 13.8157 14.4678 13.816 14.4284V8.88941C13.8155 8.85112 13.8266 8.81358 13.8478 8.78172C13.8753 8.74444 13.914 8.71691 13.9582 8.70315C14.0255 8.68049 14.0949 8.66483 14.1655 8.65642C14.2717 8.6456 14.3784 8.64086 14.4851 8.64219C14.5948 8.64008 14.7045 8.64415 14.8136 8.65439C14.883 8.66161 14.9513 8.67731 15.0168 8.70112C15.0575 8.71708 15.0927 8.74434 15.1184 8.77969C15.1399 8.81142 15.1511 8.84905 15.1503 8.88738V9.57756C15.2728 9.39767 15.4087 9.22719 15.5566 9.06754C15.6679 8.9491 15.7906 8.84201 15.9231 8.74785C16.0293 8.6738 16.1476 8.61858 16.2726 8.58462C16.3855 8.55333 16.5022 8.53761 16.6193 8.53789C16.6722 8.53789 16.7318 8.53789 16.7934 8.54669C16.8581 8.55339 16.9224 8.56402 16.9858 8.57853C17.0444 8.59161 17.1023 8.60789 17.1592 8.62729C17.1992 8.64024 17.2365 8.66019 17.2696 8.68622C17.2894 8.70584 17.3057 8.72875 17.3176 8.75395C17.3305 8.78743 17.3398 8.82217 17.3454 8.85758C17.3563 8.92207 17.3627 8.98726 17.3644 9.05264C17.3691 9.13934 17.3712 9.25584 17.3712 9.40417L17.3725 9.4062ZM23.2929 11.4991C23.2929 11.6901 23.2502 11.8296 23.1655 11.9204C23.1202 11.9668 23.0654 12.0029 23.0049 12.0263C22.9443 12.0497 22.8795 12.0597 22.8147 12.0558H19.4451C19.4422 12.2719 19.4705 12.4872 19.5291 12.6952C19.5789 12.8755 19.6695 13.0419 19.7939 13.1815C19.9247 13.3203 20.0875 13.4249 20.268 13.4863C20.4892 13.5633 20.722 13.6013 20.9561 13.5987C21.1973 13.6019 21.4381 13.5819 21.6755 13.5391C21.8565 13.506 22.0354 13.4621 22.2112 13.4077C22.3616 13.359 22.4862 13.317 22.5858 13.2763C22.6621 13.2421 22.744 13.2221 22.8276 13.2174C22.8598 13.2155 22.892 13.2228 22.9203 13.2384C22.9494 13.2572 22.9717 13.2847 22.984 13.317C23.0026 13.3673 23.014 13.42 23.0179 13.4734C23.024 13.5412 23.026 13.6279 23.026 13.7295C23.026 13.8209 23.026 13.8988 23.0199 13.9625C23.0167 14.0172 23.0104 14.0717 23.0009 14.1257C22.9953 14.1653 22.9832 14.2038 22.965 14.2395C22.9464 14.2727 22.9237 14.3034 22.8973 14.3309C22.8303 14.3812 22.7561 14.4212 22.6772 14.4494C22.5277 14.5094 22.3743 14.559 22.218 14.5978C22.0078 14.6508 21.7951 14.6931 21.5806 14.7244C21.3261 14.7618 21.0691 14.7801 20.8119 14.7793C20.3736 14.7879 19.9369 14.725 19.5189 14.593C19.1695 14.4817 18.8517 14.2887 18.5917 14.0302C18.3342 13.76 18.1441 13.4327 18.0369 13.0752C17.9084 12.6354 17.8472 12.1787 17.8554 11.7206C17.8488 11.27 17.9138 10.8212 18.0478 10.391C18.1614 10.0209 18.3518 9.67882 18.6066 9.38723C18.8502 9.11163 19.1543 8.89625 19.4952 8.75801C19.8715 8.60778 20.2739 8.53365 20.6791 8.53992C21.1424 8.53992 21.538 8.60765 21.8665 8.74311C22.1779 8.86601 22.4563 9.06017 22.6792 9.31002C22.8941 9.56094 23.0527 9.85492 23.1445 10.1722C23.2466 10.5229 23.2966 10.8867 23.2929 11.2519V11.4991ZM21.7818 11.0548C21.794 10.6168 21.7057 10.2725 21.517 10.0219C21.3287 9.76991 21.0388 9.64529 20.6446 9.64529C20.4655 9.64121 20.2879 9.6795 20.1264 9.75704C19.9823 9.82788 19.8563 9.93075 19.758 10.0578C19.657 10.1916 19.5817 10.3429 19.5358 10.5041C19.482 10.683 19.4515 10.8681 19.4451 11.0548H21.7818ZM29.6873 11.4991C29.6873 11.6901 29.6453 11.8296 29.5607 11.9204C29.5151 11.9667 29.4602 12.0028 29.3996 12.0262C29.339 12.0495 29.274 12.0597 29.2092 12.0558H25.8395C25.8354 12.2727 25.863 12.489 25.9215 12.6979C25.971 12.8783 26.0617 13.0448 26.1863 13.1842C26.3171 13.3231 26.4798 13.4277 26.6604 13.489C26.8824 13.5653 27.1159 13.6024 27.3506 13.5987C27.592 13.6019 27.8331 13.582 28.0706 13.5391C28.2516 13.5059 28.4305 13.462 28.6064 13.4077C28.756 13.359 28.8813 13.317 28.9809 13.2763C29.057 13.2421 29.1387 13.2221 29.222 13.2174C29.2543 13.2155 29.2865 13.2228 29.3148 13.2384C29.3439 13.2572 29.3662 13.2847 29.3785 13.317C29.3973 13.3672 29.4088 13.4199 29.4123 13.4734C29.4191 13.5412 29.4212 13.6279 29.4212 13.7295C29.4212 13.8209 29.4212 13.8988 29.4144 13.9625C29.4115 14.0172 29.4052 14.0717 29.3954 14.1257C29.3901 14.1654 29.378 14.2039 29.3595 14.2395C29.3411 14.2729 29.3184 14.3036 29.2918 14.3309C29.2249 14.3814 29.1506 14.4214 29.0717 14.4494C28.9222 14.5094 28.7688 14.559 28.6124 14.5978C28.4023 14.6509 28.1896 14.6932 27.9751 14.7244C27.7208 14.7618 27.4641 14.7801 27.207 14.7793C26.7686 14.7879 26.3316 14.725 25.9134 14.593C25.564 14.4817 25.2462 14.2887 24.9861 14.0302C24.7289 13.7599 24.539 13.4327 24.4321 13.0752C24.3033 12.6354 24.2419 12.1787 24.2499 11.7206C24.2437 11.27 24.3086 10.8213 24.4423 10.391C24.5562 10.0212 24.7466 9.67946 25.001 9.38791C25.2449 9.11229 25.5493 8.89692 25.8903 8.75869C26.2662 8.60831 26.6681 8.53396 27.0729 8.53992C27.5362 8.53992 27.9324 8.60765 28.2602 8.74311C28.5719 8.86567 28.8503 9.05988 29.073 9.31002C29.288 9.55994 29.4469 9.85302 29.539 10.1695C29.6409 10.5202 29.6906 10.884 29.6867 11.2492V11.4991H29.6873ZM28.1763 11.0548C28.1894 10.6168 28.1011 10.2725 27.9114 10.0219C27.7231 9.76991 27.4333 9.64529 27.0397 9.64529C26.8604 9.6412 26.6827 9.67949 26.5209 9.75704C26.3768 9.82788 26.2507 9.93075 26.1525 10.0578C26.0515 10.1916 25.9762 10.3429 25.9303 10.5041C25.8768 10.6831 25.8463 10.8681 25.8395 11.0548H28.1763ZM36.4909 14.463C36.4908 14.4947 36.4829 14.5259 36.4679 14.5537C36.4496 14.5857 36.4202 14.6098 36.3852 14.6215C36.3309 14.6401 36.2749 14.6535 36.2179 14.6614C36.1281 14.6729 36.0376 14.6779 35.947 14.6763C35.8289 14.678 35.7108 14.6716 35.5935 14.6574C35.5213 14.6513 35.4517 14.6281 35.3903 14.5896C35.3474 14.5589 35.3101 14.5211 35.2799 14.4779L32.3268 10.4642V14.4792C32.3266 14.5093 32.3179 14.5386 32.3017 14.5639C32.2802 14.5931 32.2498 14.6145 32.2151 14.6249C32.162 14.6428 32.1073 14.6555 32.0518 14.6628C31.9663 14.6742 31.88 14.6792 31.7938 14.6777C31.7089 14.679 31.624 14.6741 31.5398 14.6628C31.4829 14.6557 31.4268 14.643 31.3725 14.6249C31.3376 14.6147 31.3072 14.5932 31.2858 14.5639C31.2694 14.5387 31.2605 14.5093 31.26 14.4792V6.77079C31.2591 6.73988 31.2681 6.70949 31.2858 6.6841C31.3071 6.65501 31.3377 6.63401 31.3725 6.62449C31.4269 6.60665 31.4829 6.59396 31.5398 6.58656C31.624 6.57529 31.7089 6.57031 31.7938 6.57166C31.88 6.57019 31.9663 6.57517 32.0518 6.58656C32.1073 6.5942 32.1619 6.6069 32.2151 6.62449C32.2498 6.6342 32.2803 6.65517 32.3017 6.6841C32.3192 6.70957 32.3279 6.73996 32.3268 6.77079V10.3375L35.1715 6.77079C35.1948 6.73485 35.2241 6.70322 35.2582 6.67732C35.2944 6.65039 35.3353 6.63041 35.3788 6.6184C35.4354 6.60186 35.4934 6.59053 35.5522 6.58453C35.6401 6.5748 35.7285 6.5705 35.817 6.57166C35.9039 6.57006 35.9909 6.57505 36.0771 6.58656C36.1304 6.59454 36.1829 6.60792 36.2335 6.62652C36.2672 6.63725 36.2959 6.65988 36.3141 6.69019C36.3294 6.71427 36.3374 6.74226 36.3372 6.77079C36.3361 6.82663 36.3225 6.88151 36.2972 6.93131C36.2531 7.01041 36.2021 7.08544 36.1448 7.1555L33.4837 10.3389L36.348 14.1487C36.3981 14.2174 36.4408 14.2912 36.4753 14.3688C36.4881 14.3992 36.4959 14.4315 36.4984 14.4643L36.4909 14.463ZM38.7687 14.4819C38.7698 14.5123 38.7608 14.5421 38.743 14.5666C38.7214 14.5927 38.6937 14.6129 38.6624 14.6255C38.6119 14.644 38.5593 14.6563 38.5059 14.6621C38.4215 14.6712 38.3367 14.6753 38.2519 14.6743C38.1684 14.6752 38.085 14.6712 38.002 14.6621C37.9479 14.6562 37.8947 14.6439 37.8435 14.6255C37.811 14.6139 37.7824 14.5935 37.7609 14.5666C37.746 14.5409 37.7387 14.5116 37.7399 14.4819V8.89822C37.7392 8.86992 37.7465 8.84201 37.7609 8.81762C37.7808 8.78803 37.8098 8.7657 37.8435 8.75395C37.8946 8.73549 37.9479 8.72343 38.002 8.71805C38.085 8.70874 38.1684 8.70444 38.2519 8.70518C38.3367 8.7044 38.4216 8.70869 38.5059 8.71805C38.5593 8.7234 38.6119 8.73546 38.6624 8.75395C38.695 8.76666 38.723 8.78883 38.743 8.81762C38.7599 8.84105 38.7689 8.86929 38.7687 8.89822V14.4792V14.4819ZM38.8825 7.01598C38.8825 7.2571 38.8364 7.42236 38.747 7.50703C38.6576 7.59169 38.489 7.63842 38.2431 7.63842C37.9972 7.63842 37.8367 7.59575 37.7487 7.51177C37.6606 7.42778 37.6132 7.2659 37.6132 7.02885C37.6132 6.79179 37.6599 6.62246 37.7487 6.5378C37.8374 6.45313 38.0074 6.4064 38.2526 6.4064C38.4978 6.4064 38.659 6.44907 38.7484 6.53373C38.8378 6.6184 38.8838 6.77892 38.8838 7.01598H38.8825ZM43.5505 14.0668C43.5528 14.1627 43.5442 14.2586 43.5248 14.3526C43.5163 14.4103 43.4906 14.4642 43.4509 14.507C43.4084 14.548 43.3579 14.5798 43.3026 14.6005C43.2296 14.6321 43.1536 14.6562 43.0757 14.6723C42.9917 14.6912 42.9023 14.7061 42.8048 14.719C42.7107 14.7317 42.6159 14.7381 42.521 14.738C42.2679 14.7442 42.0157 14.7057 41.7759 14.6242C41.5798 14.5535 41.4049 14.4339 41.268 14.2767C41.1284 14.105 41.03 13.9037 40.9801 13.6881C40.9184 13.4144 40.8902 13.1342 40.8961 12.8537V9.59449H40.1104C40.0787 9.59328 40.0478 9.58336 40.0213 9.56579C39.9948 9.54823 39.9736 9.52372 39.9601 9.49493C39.9168 9.39275 39.898 9.28189 39.9052 9.17117C39.9038 9.10515 39.9088 9.03913 39.9201 8.97408C39.9289 8.92771 39.9423 8.88234 39.9601 8.83861C39.9749 8.80785 39.9984 8.78216 40.0278 8.76479C40.056 8.75016 40.0875 8.74293 40.1192 8.74379H40.8981V7.4183C40.8973 7.38997 40.9046 7.36199 40.9191 7.3377C40.939 7.30708 40.9679 7.2834 41.0018 7.26997C41.0523 7.24826 41.1061 7.23543 41.1609 7.23204C41.2439 7.22238 41.3274 7.21808 41.4109 7.21917C41.4957 7.21804 41.5806 7.22234 41.6649 7.23204C41.719 7.23632 41.7719 7.25008 41.8213 7.27268C41.8539 7.28747 41.8817 7.31089 41.9019 7.34041C41.9186 7.36392 41.9274 7.39216 41.927 7.42101V8.7465H43.3493C43.3796 8.74539 43.4096 8.75265 43.436 8.7675C43.4633 8.78611 43.4853 8.81157 43.4997 8.84132C43.5202 8.88403 43.5337 8.92978 43.5397 8.97679C43.5492 9.04203 43.5535 9.10794 43.5525 9.17388C43.5599 9.28467 43.5409 9.39563 43.497 9.49764C43.4841 9.52635 43.4635 9.5509 43.4374 9.5685C43.4113 9.58609 43.3808 9.59603 43.3493 9.5972H41.927V12.7027C41.927 13.0853 41.9846 13.3752 42.097 13.5703C42.2094 13.7654 42.4119 13.8642 42.7066 13.8642C42.7913 13.8657 42.876 13.8566 42.9585 13.8372C43.0252 13.8207 43.091 13.8008 43.1556 13.7775C43.2125 13.7566 43.2613 13.7376 43.304 13.7186C43.3381 13.7015 43.3755 13.692 43.4137 13.6909C43.4345 13.6903 43.4551 13.6954 43.4733 13.7058C43.4937 13.7199 43.5085 13.7408 43.5153 13.7647C43.5279 13.8033 43.5371 13.843 43.543 13.8832C43.5507 13.9441 43.5531 14.0055 43.5505 14.0668V14.0668Z" fill="#4AB7C3"/>
</svg>
