<svg width="58" height="22" viewBox="0 0 58 22" fill="none" xmlns="http://www.w3.org/2000/svg">
<g clip-path="url(#clip0)">
<path d="M1.52163 9.93167H0V8.31726H1.52163V5.85852H3.37728V8.31726H5.48344V9.94559H3.38656V14.5151C3.36352 14.7761 3.43605 15.0366 3.59068 15.2481C3.68612 15.331 3.79748 15.3935 3.91794 15.4318C4.0384 15.4701 4.16541 15.4833 4.29119 15.4708H5.68292V17.0806H3.9015C3.57659 17.108 3.24946 17.0708 2.93895 16.9713C2.62845 16.8718 2.34069 16.7118 2.09224 16.5007C1.67276 15.999 1.46776 15.3524 1.52163 14.7007V9.93167Z" fill="black"/>
<path d="M13.6808 9.16159C14.3349 9.79715 14.6643 10.827 14.6643 12.242V17.0667H12.8086V12.344C12.8572 11.6666 12.6668 10.9936 12.2705 10.442C12.0773 10.2221 11.8365 10.0493 11.5663 9.93675C11.2962 9.82419 11.0039 9.77485 10.7117 9.79251C10.3856 9.77757 10.0604 9.8385 9.76171 9.97051C9.46306 10.1025 9.19912 10.302 8.99063 10.5533C8.54407 11.1527 8.32239 11.89 8.36434 12.6363V17.0667H6.53653V5.06989H8.39218V9.56983C8.69722 9.12465 9.10972 8.76369 9.59143 8.5204C10.0731 8.27711 10.6085 8.15937 11.1478 8.1781C11.6172 8.15875 12.0857 8.23377 12.5255 8.39872C12.9654 8.56367 13.3677 8.81519 13.7086 9.1384" fill="black"/>
<path d="M21.0152 8.31725V10.0337H20.1895C19.873 10.0053 19.5544 10.0586 19.2644 10.1886C18.9745 10.3185 18.7227 10.5208 18.5333 10.776C18.1692 11.345 17.9894 12.0124 18.0184 12.6873V17.0666H16.1627V8.31725H17.805L18.0091 9.65331C18.2433 9.24678 18.579 8.90792 18.9833 8.66982C19.4826 8.41202 20.0411 8.29041 20.6023 8.31725H21.0152Z" fill="black"/>
<path d="M27.9971 11.7456C27.9486 11.1597 27.6741 10.6157 27.2317 10.2286C26.7733 9.86723 26.2003 9.6828 25.6172 9.70903C25.0429 9.69906 24.4848 9.90048 24.0492 10.275C23.611 10.6531 23.338 11.1875 23.2884 11.7642L27.9971 11.7456ZM21.8456 10.3307C22.1832 9.68365 22.6982 9.14618 23.3302 8.78121C24.0069 8.40236 24.7722 8.21023 25.5477 8.22451C26.3228 8.20699 27.09 8.38403 27.7791 8.73945C28.4121 9.0649 28.9409 9.56159 29.3053 10.1729C29.6879 10.8454 29.8848 11.6075 29.876 12.3812C29.8773 12.6156 29.8602 12.8499 29.8249 13.0817H23.2374V13.1884C23.2478 13.8605 23.5035 14.5056 23.9564 15.0023C24.1855 15.229 24.4594 15.4056 24.7605 15.5206C25.0617 15.6356 25.3835 15.6866 25.7054 15.6703C26.2117 15.685 26.7104 15.5442 27.1342 15.2667C27.513 14.99 27.7771 14.5839 27.8765 14.1255H29.7321C29.5747 14.9894 29.11 15.7671 28.4239 16.3151C27.675 16.9006 26.7435 17.2028 25.7935 17.1687C24.9644 17.1882 24.1439 16.9967 23.409 16.612C22.7469 16.2541 22.2036 15.7108 21.8456 15.0487C21.4606 14.3274 21.2688 13.5187 21.2889 12.7013C21.2754 11.8772 21.4667 11.0626 21.8456 10.3307Z" fill="black"/>
<path d="M37.5769 11.7456C37.5301 11.1603 37.2572 10.6162 36.8161 10.2286C36.3578 9.86724 35.7847 9.68281 35.2017 9.70904C34.6269 9.69687 34.0681 9.89857 33.6336 10.275C33.1938 10.6518 32.9204 11.187 32.8728 11.7642L37.5769 11.7456ZM31.4069 10.3307C31.7524 9.68173 32.2753 9.14436 32.9146 8.78122C33.5911 8.40174 34.3566 8.20957 35.1321 8.22452C35.9071 8.20838 36.6739 8.38534 37.3635 8.73947C37.9955 9.06633 38.524 9.5627 38.8898 10.173C39.2743 10.8436 39.4759 11.6035 39.4743 12.3765C39.4733 12.6109 39.4562 12.845 39.4233 13.077H32.8032V13.1837C32.8137 13.8558 33.0694 14.5009 33.5223 14.9976C33.7509 15.2238 34.024 15.4 34.3242 15.515C34.6245 15.63 34.9454 15.6813 35.2666 15.6657C35.77 15.6842 36.267 15.5482 36.6908 15.276C37.0839 15.0082 37.362 14.6026 37.4702 14.1394H39.3258C39.1684 15.0044 38.7018 15.7827 38.013 16.3291C37.2659 16.9145 36.3358 17.2169 35.3872 17.1827C34.558 17.2028 33.7373 17.0112 33.0027 16.626C32.3358 16.2697 31.7876 15.7263 31.4254 15.0626C31.0425 14.3405 30.8509 13.5324 30.8687 12.7152C30.8517 11.8929 31.0365 11.079 31.4069 10.3446" fill="black"/>
<path d="M42.6289 5.0885V12.5853L46.6325 8.30341H48.7711L45.5005 11.8291L48.9752 17.0667H46.7856L44.183 13.1838L42.6289 14.826V17.0667H40.7779V5.0885H42.6289Z" fill="black"/>
<path d="M51.6474 17.0667H49.7917V8.31731H51.6474V17.0667ZM51.536 5.12095C51.6431 5.22177 51.7275 5.34426 51.7835 5.48026C51.8395 5.61625 51.8658 5.76262 51.8608 5.9096C51.8656 6.05725 51.8392 6.20424 51.7832 6.34095C51.7272 6.47766 51.643 6.60101 51.536 6.70289C51.3183 6.90808 51.0304 7.02235 50.7312 7.02235C50.4319 7.02235 50.144 6.90808 49.9263 6.70289C49.8193 6.60101 49.7351 6.47766 49.6791 6.34095C49.6232 6.20424 49.5967 6.05725 49.6015 5.9096C49.5965 5.76262 49.6228 5.61625 49.6788 5.48026C49.7348 5.34426 49.8192 5.22177 49.9263 5.12095C50.148 4.92368 50.4344 4.8147 50.7312 4.8147C51.0279 4.8147 51.3143 4.92368 51.536 5.12095" fill="black"/>
<path d="M53.8556 9.93167H52.3293V8.31726H53.8556V5.85852H55.7112V8.31726H57.8127V9.94559H55.7112V14.5151C55.686 14.7763 55.7587 15.0376 55.9153 15.2481C56.0108 15.331 56.1221 15.3935 56.2426 15.4318C56.363 15.4701 56.4901 15.4833 56.6158 15.4708H58.0076V17.0806H56.2261C55.9019 17.1081 55.5755 17.071 55.2657 16.9715C54.9559 16.872 54.669 16.7119 54.4215 16.5007C54.0002 15.9948 53.7966 15.3425 53.8556 14.6868V9.93167Z" fill="black"/>
</g>
<defs>
<clipPath id="clip0">
<rect width="58" height="22" fill="white"/>
</clipPath>
</defs>
</svg>
