<svg width="22" height="22" viewBox="0 0 22 22" fill="none" xmlns="http://www.w3.org/2000/svg">
<path d="M14.9049 18.2434L7.60661 14.5845C7.21805 14.3894 6.89134 14.0902 6.66294 13.7203C6.43455 13.3503 6.31346 12.9242 6.31318 12.4894V4.63052L8.65905 5.84034V11.314C8.65705 11.7493 8.77721 12.1764 9.00585 12.5467C9.2345 12.9171 9.56247 13.2158 9.95247 13.4091L15.1114 15.991L14.9049 18.2434ZM5.26566 15.755C4.8771 15.5599 4.55039 15.2607 4.32199 14.8908C4.0936 14.5208 3.97251 14.0947 3.97223 13.6599V4.55675L3.32306 4.23708C3.14446 4.14719 2.94581 4.10455 2.74605 4.11322C2.54629 4.1219 2.35208 4.18161 2.18194 4.28665C2.01181 4.39169 1.87142 4.53856 1.77416 4.71326C1.6769 4.88796 1.62602 5.08466 1.62636 5.28461V14.8304C1.62551 15.2654 1.74613 15.692 1.97465 16.0621C2.20317 16.4323 2.53051 16.7313 2.91979 16.9254L11.6492 21.2877C11.8278 21.3776 12.0264 21.4202 12.2262 21.4115C12.4259 21.4028 12.6202 21.3431 12.7903 21.2381C12.9604 21.1331 13.1008 20.9862 13.1981 20.8115C13.2953 20.6368 13.3462 20.4401 13.3459 20.2401V19.7778L5.26566 15.755Z" fill="#28826B"/>
<path d="M19.0802 5.08301C19.4688 5.27807 19.7955 5.57727 20.0239 5.94721C20.2523 6.31716 20.3734 6.7433 20.3736 7.17807V16.7288C20.3734 16.9451 20.3125 17.1571 20.1977 17.3406C20.0829 17.524 19.919 17.6716 19.7245 17.7664V17.7664L17.3639 18.9566C17.5639 18.8643 17.7333 18.7166 17.8518 18.5309C17.9704 18.3452 18.0332 18.1294 18.0327 17.9091V8.34854C18.033 7.91365 17.9121 7.48728 17.6837 7.11723C17.4552 6.74719 17.1282 6.44809 16.7393 6.25349L8.01972 1.89126C7.85573 1.80867 7.67466 1.76565 7.49104 1.76565C7.30742 1.76565 7.12636 1.80867 6.96236 1.89126V1.89126L9.31806 0.710946C9.47808 0.629729 9.655 0.587402 9.83445 0.587402C10.0139 0.587402 10.1908 0.629729 10.3508 0.710946L19.0802 5.08301ZM14.4131 7.42396L5.66402 3.05681C5.50366 2.97673 5.32688 2.93504 5.14763 2.93504C4.96839 2.93504 4.7916 2.97673 4.63125 3.05681V3.05681L2.26079 4.24204C2.42444 4.15831 2.60564 4.11464 2.78947 4.11464C2.9733 4.11464 3.1545 4.15831 3.31815 4.24204L12.0426 8.60919C12.4332 8.8022 12.7618 9.10079 12.9913 9.47109C13.2208 9.8414 13.3419 10.2686 13.341 10.7042V20.2402C13.3401 20.4615 13.2764 20.678 13.157 20.8643C13.0377 21.0507 12.8678 21.1993 12.6672 21.2926V21.2926L15.0426 20.1074C15.2375 20.0117 15.4016 19.8633 15.5164 19.679C15.6311 19.4947 15.6919 19.2819 15.6917 19.0648V9.52393C15.6932 9.08999 15.5745 8.66411 15.3488 8.29346C15.1231 7.92281 14.7993 7.62187 14.4131 7.42396" fill="#77C4A3"/>
</svg>
